<svg width="42" height="42" viewBox="0 0 42 42" fill="none" xmlns="http://www.w3.org/2000/svg">
<path d="M9.61082 3.95487C12.982 1.7023 16.9455 0.5 21 0.5C21.6386 0.5 22.2791 0.533957 22.9113 0.591817C21.1375 2.13046 19.8034 4.12312 19.0593 6.36624C18.1849 9.00212 18.1704 11.8476 19.0178 14.4923C19.8651 17.137 21.5307 19.4442 23.7741 21.0811C26.0172 22.7178 28.7221 23.5998 31.4988 23.6C33.5867 23.6048 35.6454 23.1095 37.5026 22.1556C38.9917 21.3907 40.3167 20.3488 41.4083 19.0895C41.4661 19.7214 41.5 20.3616 41.5 21C41.5 25.0545 40.2977 29.018 38.0451 32.3892C35.7926 35.7604 32.5909 38.3879 28.845 39.9395C25.0991 41.4911 20.9773 41.8971 17.0007 41.1061C13.024 40.3151 9.37129 38.3627 6.50432 35.4957C3.63734 32.6287 1.68491 28.976 0.893911 24.9993C0.102914 21.0227 0.508882 16.9009 2.06048 13.155C3.61207 9.4091 6.23961 6.20744 9.61082 3.95487Z" fill="#424242" stroke="#FCFCFC"/>
</svg>
