<svg width="19" height="26" viewBox="0 0 19 26" fill="none" xmlns="http://www.w3.org/2000/svg">
<path d="M5.58374 22.6952C5.58423 23.0023 5.67505 23.3031 5.84546 23.5589L6.67993 24.8133C6.82248 25.0278 7.01583 25.2036 7.24278 25.3253C7.46972 25.4469 7.72322 25.5106 7.98071 25.5106H10.9939C11.2514 25.5106 11.5049 25.4469 11.7318 25.3253C11.9588 25.2036 12.1521 25.0278 12.2947 24.8133L13.1292 23.5589C13.2995 23.303 13.3905 23.0026 13.3909 22.6952L13.3928 20.8226H5.5813L5.58374 22.6952ZM0.893311 9.10386C0.893311 11.2704 1.69653 13.2469 3.02026 14.7572C3.8269 15.6776 5.08862 17.6004 5.56958 19.2225C5.57153 19.2352 5.573 19.2479 5.57495 19.2606H13.3992C13.4011 19.2479 13.4026 19.2357 13.4045 19.2225C13.8855 17.6004 15.1472 15.6776 15.9539 14.7572C17.2776 13.2469 18.0808 11.2704 18.0808 9.10386C18.0808 4.34849 14.219 0.495464 9.4602 0.510112C4.47925 0.525249 0.893311 4.56138 0.893311 9.10386ZM9.48706 5.19761C7.33325 5.19761 5.58081 6.95005 5.58081 9.10386C5.58081 9.5355 5.2312 9.88511 4.79956 9.88511C4.36792 9.88511 4.01831 9.5355 4.01831 9.10386C4.01831 6.08824 6.47144 3.63511 9.48706 3.63511C9.9187 3.63511 10.2683 3.98472 10.2683 4.41636C10.2683 4.848 9.9187 5.19761 9.48706 5.19761Z" fill="#FAF00C"/>
</svg>
