<svg width="55" height="55" viewBox="0 0 55 55" fill="none" xmlns="http://www.w3.org/2000/svg">
<g filter="url(#filter0_d_40_48)">
<path d="M27.5 0C21.2688 0 15.2873 2.47741 10.8848 6.88293C6.47764 11.2902 4.00122 17.2673 4 23.5C4 29.7301 6.47852 35.7116 10.8848 40.1171C15.2873 44.5226 21.2688 47 27.5 47C33.7312 47 39.7127 44.5226 44.1152 40.1171C48.5215 35.7116 51 29.7301 51 23.5C51 17.2699 48.5215 11.2884 44.1152 6.88293C39.7127 2.47741 33.7312 0 27.5 0Z" fill="url(#paint0_linear_40_48)"/>
</g>
<path d="M13.7541 22.1051C20.6058 19.1206 25.1736 17.1528 27.4575 16.2022C33.9861 13.4876 35.3411 13.0161 36.226 13.0001C36.4206 12.997 36.8539 13.0451 37.1366 13.2737C37.3716 13.4665 37.4377 13.7272 37.4707 13.9102C37.5001 14.0931 37.5405 14.5098 37.5075 14.8352C37.155 18.5511 35.6238 27.5685 34.8454 31.7306C34.5186 33.4916 33.8686 34.082 33.2407 34.1397C31.8748 34.2653 30.8393 33.2379 29.5175 32.3717C27.4502 31.0156 26.2825 30.1718 24.274 28.8489C21.9534 27.3199 23.4589 26.4794 24.7807 25.1061C25.1259 24.7467 31.1404 19.2774 31.2543 18.7813C31.2689 18.7193 31.2836 18.4879 31.1441 18.366C31.0082 18.2438 30.8063 18.2856 30.6594 18.3187C30.4501 18.3657 27.1491 20.5497 20.7454 24.8704C19.809 25.5144 18.9608 25.8284 18.1971 25.8119C17.3599 25.7939 15.7443 25.3375 14.5436 24.9475C13.0748 24.4691 11.9035 24.2161 12.0063 23.4035C12.0577 22.9805 12.6415 22.5476 13.7541 22.1051Z" fill="white"/>
<defs>
<filter id="filter0_d_40_48" x="0" y="0" width="55" height="55" filterUnits="userSpaceOnUse" color-interpolation-filters="sRGB">
<feFlood flood-opacity="0" result="BackgroundImageFix"/>
<feColorMatrix in="SourceAlpha" type="matrix" values="0 0 0 0 0 0 0 0 0 0 0 0 0 0 0 0 0 0 127 0" result="hardAlpha"/>
<feOffset dy="4"/>
<feGaussianBlur stdDeviation="2"/>
<feComposite in2="hardAlpha" operator="out"/>
<feColorMatrix type="matrix" values="0 0 0 0 0 0 0 0 0 0 0 0 0 0 0 0 0 0 0.25 0"/>
<feBlend mode="normal" in2="BackgroundImageFix" result="effect1_dropShadow_40_48"/>
<feBlend mode="normal" in="SourceGraphic" in2="effect1_dropShadow_40_48" result="shape"/>
</filter>
<linearGradient id="paint0_linear_40_48" x1="2354" y1="0" x2="2354" y2="4700" gradientUnits="userSpaceOnUse">
<stop stop-color="#2AABEE"/>
<stop offset="1" stop-color="#229ED9"/>
</linearGradient>
</defs>
</svg>
