<svg width="47" height="47" viewBox="0 0 47 47" fill="none" xmlns="http://www.w3.org/2000/svg">
<path d="M23.5 0C17.2688 0 11.2873 2.47741 6.88477 6.88293C2.47764 11.2902 0.00122079 17.2673 0 23.5C0 29.7301 2.47852 35.7116 6.88477 40.1171C11.2873 44.5226 17.2688 47 23.5 47C29.7312 47 35.7127 44.5226 40.1152 40.1171C44.5215 35.7116 47 29.7301 47 23.5C47 17.2699 44.5215 11.2884 40.1152 6.88293C35.7127 2.47741 29.7312 0 23.5 0Z" fill="url(#paint0_linear_40_48)"/>
<path d="M9.7541 22.1051C16.6058 19.1206 21.1736 17.1528 23.4575 16.2022C29.9861 13.4876 31.3411 13.0161 32.226 13.0001C32.4206 12.997 32.8539 13.0451 33.1366 13.2737C33.3716 13.4665 33.4377 13.7272 33.4707 13.9102C33.5001 14.0931 33.5405 14.5098 33.5075 14.8352C33.155 18.5511 31.6238 27.5685 30.8454 31.7306C30.5186 33.4916 29.8686 34.082 29.2407 34.1397C27.8748 34.2653 26.8393 33.2379 25.5175 32.3717C23.4502 31.0156 22.2825 30.1718 20.274 28.8489C17.9534 27.3199 19.4589 26.4794 20.7807 25.1061C21.1259 24.7467 27.1404 19.2774 27.2543 18.7813C27.2689 18.7193 27.2836 18.4879 27.1441 18.366C27.0082 18.2438 26.8063 18.2856 26.6594 18.3187C26.4501 18.3657 23.1491 20.5497 16.7453 24.8704C15.809 25.5144 14.9608 25.8284 14.1971 25.8119C13.3599 25.7939 11.7443 25.3375 10.5436 24.9475C9.0748 24.4691 7.90348 24.2161 8.00629 23.4035C8.05769 22.9805 8.64152 22.5476 9.7541 22.1051Z" fill="white"/>
<defs>
<linearGradient id="paint0_linear_40_48" x1="2350" y1="0" x2="2350" y2="4700" gradientUnits="userSpaceOnUse">
<stop stop-color="#2AABEE"/>
<stop offset="1" stop-color="#229ED9"/>
</linearGradient>
</defs>
</svg>
