<svg width="41" height="41" viewBox="0 0 41 41" fill="none" xmlns="http://www.w3.org/2000/svg">
<path d="M34.2734 17.9375V33.3125C34.2734 33.9072 34.0372 34.4775 33.6167 34.898C33.1962 35.3185 32.6259 35.5547 32.0312 35.5547H8.96875C8.37408 35.5547 7.80378 35.3185 7.38328 34.898C6.96279 34.4775 6.72656 33.9072 6.72656 33.3125V17.9375C6.72656 17.3428 6.96279 16.7725 7.38328 16.352C7.80378 15.9316 8.37408 15.6953 8.96875 15.6953H12.8125C13.0674 15.6953 13.3118 15.7966 13.492 15.9768C13.6722 16.157 13.7734 16.4014 13.7734 16.6563C13.7734 16.9111 13.6722 17.1555 13.492 17.3357C13.3118 17.516 13.0674 17.6172 12.8125 17.6172H8.96875C8.8838 17.6172 8.80232 17.6509 8.74225 17.711C8.68218 17.7711 8.64844 17.8526 8.64844 17.9375V33.3125C8.64844 33.3975 8.68218 33.4789 8.74225 33.539C8.80232 33.5991 8.8838 33.6328 8.96875 33.6328H32.0312C32.1162 33.6328 32.1977 33.5991 32.2577 33.539C32.3178 33.4789 32.3516 33.3975 32.3516 33.3125V17.9375C32.3516 17.8526 32.3178 17.7711 32.2577 17.711C32.1977 17.6509 32.1162 17.6172 32.0312 17.6172H28.1875C27.9326 17.6172 27.6882 17.516 27.508 17.3357C27.3278 17.1555 27.2266 16.9111 27.2266 16.6563C27.2266 16.4014 27.3278 16.157 27.508 15.9768C27.6882 15.7966 27.9326 15.6953 28.1875 15.6953H32.0312C32.6259 15.6953 33.1962 15.9316 33.6167 16.352C34.0372 16.7725 34.2734 17.3428 34.2734 17.9375ZM14.7728 10.9291L19.5391 6.16442V21.7813C19.5391 22.0361 19.6403 22.2805 19.8205 22.4607C20.0007 22.641 20.2451 22.7422 20.5 22.7422C20.7549 22.7422 20.9993 22.641 21.1795 22.4607C21.3597 22.2805 21.4609 22.0361 21.4609 21.7813V6.16442L26.2272 10.9291C26.3152 11.0235 26.4212 11.0992 26.5391 11.1517C26.657 11.2042 26.7842 11.2325 26.9133 11.2348C27.0423 11.237 27.1705 11.2133 27.2901 11.165C27.4098 11.1166 27.5185 11.0447 27.6097 10.9535C27.701 10.8622 27.7729 10.7535 27.8212 10.6339C27.8695 10.5142 27.8933 10.3861 27.891 10.257C27.8887 10.128 27.8605 10.0008 27.808 9.88288C27.7554 9.76501 27.6797 9.65892 27.5853 9.57095L21.1791 3.1647C20.9989 2.98474 20.7546 2.88367 20.5 2.88367C20.2454 2.88367 20.0011 2.98474 19.8209 3.1647L13.4147 9.57095C13.3203 9.65892 13.2446 9.76501 13.192 9.88288C13.1395 10.0008 13.1113 10.128 13.109 10.257C13.1067 10.3861 13.1305 10.5142 13.1788 10.6339C13.2271 10.7535 13.299 10.8622 13.3903 10.9535C13.4815 11.0447 13.5902 11.1166 13.7099 11.165C13.8295 11.2133 13.9577 11.237 14.0867 11.2348C14.2158 11.2325 14.343 11.2042 14.4609 11.1517C14.5788 11.0992 14.6848 11.0235 14.7728 10.9291Z" fill="#E0E0E0"/>
</svg>
