<svg width="51" height="51" viewBox="0 0 51 51" fill="none" xmlns="http://www.w3.org/2000/svg">
<path d="M11.384 8.19644C10.5386 8.19644 9.72787 8.53226 9.1301 9.13003C8.53232 9.72781 8.1965 10.5386 8.1965 11.3839V39.6161C8.19652 40.3825 8.47273 41.1233 8.97451 41.7027C9.47629 42.2821 10.17 42.6613 10.9286 42.7708V29.5982C10.9286 28.5113 11.3604 27.4689 12.129 26.7003C12.8975 25.9318 13.9399 25.5 15.0269 25.5H35.9733C37.0602 25.5 38.1026 25.9318 38.8712 26.7003C39.6397 27.4689 40.0715 28.5113 40.0715 29.5982V42.7708C40.8301 42.6613 41.5239 42.2821 42.0256 41.7027C42.5274 41.1233 42.8036 40.3825 42.8036 39.6161V16.0031C42.8036 15.1561 42.4685 14.3456 41.8692 13.7482L37.2519 9.13083C36.9559 8.83458 36.6044 8.59957 36.2174 8.43924C35.8305 8.27891 35.4158 8.19641 34.997 8.19644H34.6072V15.9375C34.6072 16.4757 34.5012 17.0086 34.2953 17.5058C34.0893 18.003 33.7874 18.4548 33.4069 18.8354C33.0263 19.2159 32.5745 19.5178 32.0773 19.7238C31.5801 19.9297 31.0472 20.0357 30.509 20.0357H18.6697C17.5828 20.0357 16.5404 19.6039 15.7718 18.8354C15.0033 18.0668 14.5715 17.0244 14.5715 15.9375V8.19644H11.384ZM17.3036 8.19644V15.9375C17.3036 16.6916 17.9156 17.3036 18.6697 17.3036H30.509C30.8713 17.3036 31.2188 17.1597 31.475 16.9035C31.7311 16.6473 31.8751 16.2998 31.8751 15.9375V8.19644H17.3036ZM37.3394 42.8036V29.5982C37.3394 29.2359 37.1954 28.8885 36.9392 28.6323C36.6831 28.3761 36.3356 28.2322 35.9733 28.2322H15.0269C14.6646 28.2322 14.3171 28.3761 14.0609 28.6323C13.8047 28.8885 13.6608 29.2359 13.6608 29.5982V42.8036H37.3394ZM5.46436 11.3839C5.46436 9.81395 6.08803 8.30827 7.19818 7.19812C8.30833 6.08797 9.81401 5.46429 11.384 5.46429H34.9988C36.5688 5.46439 38.0744 6.08812 39.1845 7.19829L43.8018 11.8156C44.9129 12.9267 45.5358 14.433 45.5358 16.0031V39.6161C45.5358 41.1861 44.9121 42.6918 43.802 43.8019C42.6918 44.9121 41.1861 45.5357 39.6161 45.5357H11.384C9.81401 45.5357 8.30833 44.9121 7.19818 43.8019C6.08803 42.6918 5.46436 41.1861 5.46436 39.6161V11.3839Z" fill="#111111"/>
</svg>
