<svg width="29" height="34" viewBox="0 0 29 34" fill="none" xmlns="http://www.w3.org/2000/svg">
<path d="M0.726563 18.5008V3.12585C0.726563 2.53118 0.962793 1.96087 1.38328 1.54038C1.80378 1.11989 2.37408 0.883658 2.96875 0.883658H26.0313C26.6259 0.883658 27.1962 1.11989 27.6167 1.54038C28.0372 1.96087 28.2734 2.53118 28.2734 3.12585V18.5008C28.2734 19.0955 28.0372 19.6658 27.6167 20.0863C27.1962 20.5068 26.6259 20.743 26.0312 20.743H22.1875C21.9326 20.743 21.6882 20.6418 21.508 20.4616C21.3278 20.2814 21.2266 20.037 21.2266 19.7821C21.2266 19.5272 21.3278 19.2828 21.508 19.1026C21.6882 18.9224 21.9326 18.8212 22.1875 18.8212H26.0312C26.1162 18.8212 26.1977 18.7874 26.2577 18.7273C26.3178 18.6673 26.3516 18.5858 26.3516 18.5008L26.3516 3.12585C26.3516 3.04089 26.3178 2.95942 26.2577 2.89935C26.1977 2.83928 26.1162 2.80553 26.0313 2.80553L2.96875 2.80553C2.8838 2.80553 2.80232 2.83928 2.74225 2.89935C2.68218 2.95942 2.64844 3.04089 2.64844 3.12585V18.5008C2.64844 18.5858 2.68218 18.6673 2.74225 18.7273C2.80232 18.7874 2.8838 18.8212 2.96875 18.8212L6.8125 18.8212C7.06736 18.8212 7.31178 18.9224 7.49199 19.1026C7.6722 19.2828 7.77344 19.5272 7.77344 19.7821C7.77344 20.037 7.6722 20.2814 7.49199 20.4616C7.31178 20.6418 7.06736 20.743 6.8125 20.743L2.96875 20.743C2.37408 20.743 1.80378 20.5068 1.38328 20.0863C0.962793 19.6658 0.726562 19.0955 0.726563 18.5008ZM20.2272 25.5093L15.4609 30.2739L15.4609 14.6571C15.4609 14.4022 15.3597 14.1578 15.1795 13.9776C14.9993 13.7974 14.7549 13.6962 14.5 13.6962C14.2451 13.6962 14.0007 13.7974 13.8205 13.9776C13.6403 14.1578 13.5391 14.4022 13.5391 14.6571L13.5391 30.2739L8.77281 25.5093C8.68484 25.4149 8.57875 25.3391 8.46088 25.2866C8.343 25.2341 8.21576 25.2059 8.08673 25.2036C7.95771 25.2013 7.82955 25.225 7.70989 25.2734C7.59024 25.3217 7.48154 25.3936 7.3903 25.4849C7.29905 25.5761 7.22711 25.6848 7.17878 25.8045C7.13045 25.9241 7.10672 26.0523 7.10899 26.1813C7.11127 26.3104 7.13951 26.4376 7.19203 26.5555C7.24455 26.6733 7.32028 26.7794 7.41469 26.8674L13.8209 33.2737C14.0011 33.4536 14.2454 33.5547 14.5 33.5547C14.7546 33.5547 14.9989 33.4536 15.1791 33.2737L21.5853 26.8674C21.6797 26.7794 21.7554 26.6733 21.808 26.5555C21.8605 26.4376 21.8887 26.3104 21.891 26.1813C21.8933 26.0523 21.8695 25.9241 21.8212 25.8045C21.7729 25.6848 21.701 25.5761 21.6097 25.4849C21.5185 25.3936 21.4098 25.3217 21.2901 25.2734C21.1705 25.225 21.0423 25.2013 20.9133 25.2036C20.7842 25.2059 20.657 25.2341 20.5391 25.2866C20.4212 25.3391 20.3152 25.4149 20.2272 25.5093Z" fill="#FCFCFC"/>
</svg>
